<?xml version="1.0" encoding="UTF-8"?><svg id="Layer_2" xmlns="http://www.w3.org/2000/svg" xmlns:xlink="http://www.w3.org/1999/xlink" viewBox="0 0 221.1 212.6"><defs><style>.cls-1{fill:url(#linear-gradient);}.cls-2{fill:#fff;}.cls-3{fill:url(#linear-gradient-3);}.cls-4{fill:url(#linear-gradient-4);}.cls-5{fill:url(#linear-gradient-2);}</style><linearGradient id="linear-gradient" x1="165.8" y1="-2.79" x2="150.58" y2="27.15" gradientUnits="userSpaceOnUse"><stop offset="0" stop-color="#999178"/><stop offset="1" stop-color="#d8d1c0"/></linearGradient><linearGradient id="linear-gradient-2" x1="-2.88" y1="60.86" x2="210.14" y2="175.71" gradientUnits="userSpaceOnUse"><stop offset="0" stop-color="#9e0b0f"/><stop offset="1" stop-color="#ce181e"/></linearGradient><linearGradient id="linear-gradient-3" x1="-13.08" y1="79.74" x2="199.97" y2="194.61" xlink:href="#linear-gradient-2"/><linearGradient id="linear-gradient-4" x1="-.2" y1="55.86" x2="212.84" y2="170.73" xlink:href="#linear-gradient-2"/></defs><g id="bg"><g><polygon class="cls-1" points="141.46 0 177.58 19.12 149.96 27.62 141.46 0"/><g><path class="cls-5" d="M127.88,126.06c-.92-.68-2.42-1.02-4.52-1.02h-1.23v8.55h1.14c2.17,0,3.71-.33,4.62-.98,.91-.66,1.36-1.74,1.36-3.26s-.46-2.6-1.37-3.29Z"/><path class="cls-3" d="M89.41,125.68c-2.76,0-5.01,.89-6.75,2.65-1.75,1.76-2.63,3.99-2.63,6.69s.88,4.85,2.65,6.61c1.76,1.76,4.01,2.64,6.73,2.64s4.94-.88,6.7-2.65c1.76-1.76,2.63-3.96,2.63-6.6s-.88-4.87-2.65-6.65c-1.76-1.79-3.99-2.68-6.69-2.68Z"/><path class="cls-4" d="M210.35,125.64h-9.42v26.58l-8.98,8.9v-35.48h-6.99v-7.9h22.95l-28.85-93.8-32.43,9.98L136.66,1.48,0,43.51,52.01,212.6l169.09-52.01-10.75-34.95Zm-37.66-7.9h8.96v34.48h-8.96v-34.48Zm-102.77,7.9h-6.99v35.48l-8.98-8.9v-26.58h-7.03l-8.31-7.9h31.31v7.9Zm32.79,22.15c-3.58,3.44-8.01,5.16-13.3,5.16s-9.74-1.72-13.32-5.16c-3.58-3.44-5.37-7.69-5.37-12.77s1.8-9.33,5.39-12.81c3.6-3.48,8.03-5.22,13.3-5.22s9.72,1.74,13.3,5.21c3.58,3.47,5.37,7.74,5.37,12.82s-1.79,9.33-5.37,12.77Zm20.87-6.88h-1.45v11.3h-8.98v-34.48h10.03c5.32,0,9.21,.97,11.69,2.89,2.48,1.93,3.72,4.88,3.72,8.86s-1.27,6.63-3.8,8.55c-2.53,1.93-6.27,2.88-11.21,2.88Zm44.35-11.57c-1.04-1.16-2.28-2.06-3.72-2.7-1.44-.64-2.93-.96-4.48-.96-2.76,0-4.99,.88-6.69,2.62-1.71,1.75-2.56,4.05-2.56,6.89,0,2.65,.86,4.82,2.59,6.52,1.73,1.69,3.95,2.54,6.66,2.54,1.5,0,2.99-.33,4.46-.97,1.46-.64,2.71-1.54,3.74-2.69v10.21c-1.1,.7-2.43,1.23-3.99,1.6-1.55,.36-3.28,.55-5.17,.55-5.06,0-9.26-1.7-12.59-5.09-3.33-3.39-5-7.67-5-12.84s1.67-9.46,5.01-12.88c3.34-3.43,7.53-5.14,12.58-5.14,1.94,0,3.67,.18,5.2,.54,1.53,.36,2.85,.89,3.95,1.61v10.21Z"/><polygon class="cls-2" points="46.91 125.64 53.95 125.64 53.95 152.22 62.92 161.12 62.92 125.64 69.91 125.64 69.91 117.74 38.6 117.74 46.91 125.64"/><polygon class="cls-2" points="184.96 125.64 191.95 125.64 191.95 161.12 200.93 152.22 200.93 125.64 210.35 125.64 207.91 117.74 184.96 117.74 184.96 125.64"/><path class="cls-2" d="M89.41,117c-5.27,0-9.7,1.74-13.3,5.22-3.59,3.48-5.39,7.74-5.39,12.81s1.79,9.33,5.37,12.77c3.58,3.44,8.02,5.16,13.32,5.16s9.72-1.72,13.3-5.16c3.58-3.44,5.37-7.69,5.37-12.77s-1.79-9.35-5.37-12.82c-3.58-3.47-8.01-5.21-13.3-5.21Zm6.7,24.62c-1.76,1.77-3.99,2.65-6.7,2.65s-4.97-.88-6.73-2.64c-1.77-1.76-2.65-3.96-2.65-6.61s.87-4.92,2.63-6.69c1.75-1.76,4-2.65,6.75-2.65s4.93,.89,6.69,2.68c1.76,1.79,2.65,4,2.65,6.65s-.88,4.83-2.63,6.6Z"/><path class="cls-2" d="M138.59,129.48c0-3.98-1.24-6.93-3.72-8.86-2.48-1.92-6.37-2.89-11.69-2.89h-10.03v34.48h8.98v-11.3h1.45c4.94,0,8.68-.96,11.21-2.88,2.53-1.92,3.8-4.77,3.8-8.55Zm-10.7,3.12c-.91,.66-2.45,.98-4.62,.98h-1.14v-8.55h1.23c2.1,0,3.61,.34,4.52,1.02,.92,.69,1.37,1.78,1.37,3.29s-.45,2.6-1.36,3.26Z"/><path class="cls-2" d="M158.77,117c-5.05,0-9.24,1.71-12.58,5.14-3.34,3.42-5.01,7.72-5.01,12.88s1.67,9.45,5,12.84c3.33,3.4,7.53,5.09,12.59,5.09,1.89,0,3.62-.18,5.17-.55,1.56-.37,2.88-.9,3.99-1.6v-10.21c-1.03,1.14-2.27,2.05-3.74,2.69-1.47,.65-2.96,.97-4.46,.97-2.71,0-4.93-.85-6.66-2.54-1.73-1.7-2.59-3.87-2.59-6.52,0-2.84,.85-5.14,2.56-6.89,1.7-1.75,3.93-2.62,6.69-2.62,1.55,0,3.04,.32,4.48,.96,1.44,.64,2.67,1.54,3.72,2.7v-10.21c-1.1-.72-2.42-1.25-3.95-1.61-1.53-.35-3.27-.54-5.2-.54Z"/><rect class="cls-2" x="172.69" y="117.74" width="8.96" height="34.48"/></g></g></g></svg>