<svg xmlns="http://www.w3.org/2000/svg" xmlns:xlink="http://www.w3.org/1999/xlink" viewBox="0 0 174.4092 174.414"><defs><linearGradient id="a" x2="174.4092" y1="87.207" y2="87.207" gradientUnits="userSpaceOnUse"><stop offset="0.05" stop-color="#61beec"/><stop offset="0.05604" stop-color="#60bdeb"/><stop offset="0.25037" stop-color="#389fd8"/><stop offset="0.4051" stop-color="#208dcc"/><stop offset="0.5" stop-color="#1786c8"/><stop offset="0.52181" stop-color="#1682c5"/><stop offset="0.66742" stop-color="#106eb4"/><stop offset="0.81121" stop-color="#0d61aa"/><stop offset="0.95" stop-color="#0c5da7"/></linearGradient><linearGradient xlink:href="#a" id="b" x1="22.5747" x2="152.5645" y1="96.57615" y2="96.57615"/></defs><path d="M87.203 15.193a72.014 72.014 0 1 0 72.013 72.014 72.012 72.012 0 0 0-72.013-72.014Z" style="fill:#fff"/><path d="M87.203 0a87.207 87.207 0 1 0 87.206 87.207A87.205 87.205 0 0 0 87.203 0Zm0 159.22a72.014 72.014 0 1 1 72.014-72.013 72.013 72.013 0 0 1-72.014 72.014Z" style="fill:url(#a)"/><path d="M84.528 64.063h6.085v22.898h-6.085zM117.051 64.063v4.771h7.656v18.127h6.084V68.834h7.654v-4.771h-21.394zM108.575 73.127h-5.084c-1.35 0-2.449-.559-2.449-2.147 0-1.591 1.099-2.146 2.449-2.146h10.934v-4.77h-11.657c-4.352 0-7.88 2.512-7.88 6.916s3.528 6.916 7.88 6.916H108c1.352 0 2.445.559 2.445 2.15 0 1.589-1.093 2.145-2.445 2.145H95.731v4.77h12.844c4.355 0 7.88-2.508 7.88-6.914 0-4.4-3.525-6.92-7.88-6.92ZM66.002 64.063l-8.607 20.603-8.203-9.152 10.259-11.451H52.5l-9.721 10.87v-10.87h-6.087v22.898h6.087V76.092L52.5 86.961h10.123l6.968-17.268 5.061 12.694h-8.044l1.91 4.574h14.23l-9.565-22.898h-7.181z" style="fill:#004294"/><path d="M22.575 96.574a461.42 461.42 0 0 0 64.993 4.58 461.418 461.418 0 0 0 64.996-4.58 463.843 463.843 0 0 0-129.99 0Z" style="fill:url(#b)"/><path d="m26.096 144.08-1.063-1.21 2.626-2.306-.02-.023-4.384.3-1.171-1.331 4.002-.244 1.764-5.399 1.17 1.336-1.345 3.942 1.71-.094 1.702-1.492 1.063 1.209ZM24.053 135.58c-2.145 1.508-4.238 1.184-5.462-.56-1.228-1.747-.816-3.829 1.318-5.332 2.138-1.502 4.292-1.221 5.518.525s.762 3.865-1.374 5.367Zm-3.196-4.549c-1.417.996-1.828 2.215-1.136 3.192.687.98 1.971 1.01 3.387.013 1.406-.99 1.868-2.244 1.18-3.222s-2.025-.971-3.431.017ZM20.035 121.662l-1.877 2.918.537.983 2.674-1.465.773 1.414-7.065 3.869-1.349-2.463c-.81-1.483-.937-2.938.686-3.828a2.308 2.308 0 0 1 2.77.234l1.99-3.234Zm-2.458 4.512-.502-.918c-.493-.906-1.148-1.194-1.901-.781-.765.418-.75 1.058-.256 1.964l.502.914ZM11.008 121.543l-1.921-4.553 1.231-.52 1.294 3.067 1.715-.72-1.099-2.608 1.244-.525 1.1 2.607 1.985-.836-1.34-3.182 1.241-.523 1.969 4.662ZM12.526 108.36l.765 2.5 2.14-.063.478 1.56-8.454-.117-.553-1.808 6.946-4.828.492 1.61Zm-1.094.699-.774.486c-.726.484-1.55.963-2.311 1.447l.013.04a59.29 59.29 0 0 1 2.717-.112l.916-.03ZM10.228 97.39l.39 2.583 2.13.25.243 1.61-8.347-1.339-.284-1.873 7.572-3.768.255 1.668Zm-1.186.532-.835.369c-.79.373-1.674.727-2.497 1.094l.007.045c.9.072 1.84.168 2.707.28l.906.104ZM3.759 93.543l-.1-2.207c-.108-2.457 1.099-4.035 3.816-4.156 2.708-.117 4.123 1.343 4.226 3.715l.102 2.293Zm6.657-2.406c-.064-1.5-.912-2.403-2.87-2.313-1.966.086-2.663 1.053-2.597 2.555l.022.498 5.468-.24ZM3.49 85.531l.096-1.685 3.97-.842c.906-.201 1.72-.319 2.635-.528l.004-.054c-.887-.301-1.681-.531-2.558-.83l-3.852-1.268.093-1.629 7.898 2.924-.108 1.912ZM10.616 73.852l-.393 2.58 1.957.87-.246 1.614-7.57-3.764.284-1.869 8.35-1.348-.255 1.668Zm-1.29.154-.908.105c-.865.121-1.812.198-2.708.303l-.007.043c.839.336 1.706.71 2.5 1.074l.836.367ZM5.582 68.238l.426-1.586 4.746-1.151 1.89-.328.013-.054c-.832-.133-1.893-.29-2.774-.525l-3.101-.83.393-1.473 7.776 2.08-.42 1.578-4.765 1.135-1.883.338-.013.055c.86.154 1.87.296 2.763.537l3.122.838-.395 1.468ZM11.9 60.889c-2.476-.965-3.31-3.12-2.57-5.016a3.285 3.285 0 0 1 1.816-1.826l.646 1.16a2.093 2.093 0 0 0-1.163 1.138c-.441 1.134.203 2.364 1.812 2.995 1.636.632 2.917.242 3.38-.946a2.234 2.234 0 0 0-.14-1.838l1.243-.43a3.266 3.266 0 0 1 .174 2.825c-.735 1.895-2.696 2.91-5.198 1.938ZM11.502 51.182l2.24-4.407 1.192.606-1.507 2.973 1.659.841 1.281-2.524 1.203.61-1.28 2.526 1.92.973 1.563-3.075 1.203.611-2.292 4.512ZM15.252 44.113l1.197-1.857c1.333-2.068 3.226-2.658 5.514-1.186 2.278 1.469 2.588 3.48 1.303 5.472l-1.244 1.93Zm6.825 1.885c.812-1.264.642-2.486-1.004-3.547-1.657-1.064-2.784-.678-3.597.582l-.27.423 4.6 2.96ZM22.64 33.707l1.035-1.23 6.165 5.187-1.04 1.23ZM25.773 30.049l1.16-1.164 4.688 1.369 1.8.66.039-.035c-.655-.533-1.493-1.2-2.14-1.844l-2.276-2.27 1.077-1.076 5.704 5.682-1.154 1.158-4.695-1.393-1.801-.642-.038.036c.67.56 1.47 1.19 2.126 1.843l2.288 2.283-1.075 1.076ZM36.608 29.296l.018-1.442a3.183 3.183 0 0 0 2.15-.598c.65-.53.77-1.09.412-1.528-.378-.464-.872-.3-1.622-.084l-1.126.324a2.33 2.33 0 0 1-2.632-.65 2.513 2.513 0 0 1 .694-3.563 3.561 3.561 0 0 1 2.611-.788l.004 1.3a2.556 2.556 0 0 0-1.743.56c-.549.444-.703.979-.368 1.392.365.447.942.244 1.644.023l1.1-.317a2.223 2.223 0 0 1 2.639.674c.83 1.023.684 2.585-.76 3.756a4.268 4.268 0 0 1-3.021.94ZM41.188 18.654l-1.887 1.25-.738-1.119 5.138-3.394.738 1.116-1.906 1.259 3.7 5.6-1.342.888ZM45.885 14.167l1.406-.782 3.916 7.037-1.408.781ZM52.09 12.446l-2.05.946-.56-1.217 5.595-2.572.56 1.216-2.077.956 2.802 6.1-1.462.674ZM58.976 12.815 57.565 8.62l1.526-.516 1.455 4.333c.534 1.587 1.262 1.94 2.16 1.638.904-.305 1.305-1.034.769-2.623L62.02 7.12l1.464-.491 1.408 4.198c.856 2.537.123 3.941-1.743 4.57-1.858.622-3.322-.045-4.173-2.58ZM68.568 6.733l-2.21.487-.288-1.306 6.014-1.33.29 1.307-2.233.495 1.449 6.553-1.572.35ZM74.686 4.184l4.904-.594.16 1.326-3.308.398.224 1.849 2.81-.34.163 1.341-2.812.338.26 2.14 3.424-.415.163 1.341-5.022.605ZM85.955 7.21c.078-2.62 1.592-4.1 3.722-4.034 2.13.06 3.553 1.64 3.477 4.248-.077 2.61-1.59 4.164-3.724 4.101-2.13-.063-3.551-1.706-3.475-4.314Zm5.556.164c.054-1.73-.677-2.783-1.874-2.82-1.196-.035-1.988.977-2.041 2.706-.05 1.718.68 2.838 1.876 2.876 1.194.035 1.99-1.044 2.04-2.762ZM96.239 3.748l4.919.66-.179 1.326-3.321-.447-.28 2.082 2.836.381-.18 1.337-2.836-.379-.435 3.235-1.597-.216ZM105.087 12.37l1.19-.82a3.188 3.188 0 0 0 1.73 1.415c.807.224 1.334.002 1.486-.545.164-.575-.259-.887-.867-1.374l-.913-.732a2.335 2.335 0 0 1-.987-2.526 2.513 2.513 0 0 1 3.313-1.488 3.57 3.57 0 0 1 2.15 1.677l-1.058.755a2.585 2.585 0 0 0-1.465-1.101c-.683-.194-1.208-.012-1.351.503-.157.553.343.909.926 1.357l.898.712a2.227 2.227 0 0 1 .97 2.545c-.357 1.268-1.717 2.05-3.51 1.547a4.292 4.292 0 0 1-2.513-1.926ZM113.508 11.756c.973-2.47 3.13-3.294 5.025-2.548a3.284 3.284 0 0 1 1.819 1.827l-1.163.639a2.09 2.09 0 0 0-1.132-1.168c-1.132-.447-2.366.19-3 1.8-.64 1.632-.256 2.917.926 3.382a2.238 2.238 0 0 0 1.84-.13l.425 1.243a3.264 3.264 0 0 1-2.824.162c-1.895-.744-2.9-2.706-1.916-5.207ZM123.09 11.379l1.45.707-3.536 7.232-1.447-.705ZM127.348 13.525l4.26 2.498-.676 1.157-2.872-1.686-.94 1.607 2.44 1.432-.684 1.163-2.44-1.432-1.09 1.859 2.975 1.744-.681 1.164-4.365-2.558ZM134.192 17.691l1.322.973-.657 4.84-.384 1.88.047.031c.425-.726.962-1.655 1.501-2.39l1.904-2.587 1.223.904-4.77 6.484-1.313-.967.678-4.85.365-1.88-.044-.027c-.45.744-.956 1.63-1.504 2.375l-1.916 2.603-1.226-.904ZM138.73 26.252c1.795-1.955 4.106-1.948 5.604-.572a3.29 3.29 0 0 1 1.042 2.357l-1.318.184a2.079 2.079 0 0 0-.631-1.5c-.9-.825-2.278-.672-3.447.602-1.186 1.29-1.29 2.628-.354 3.487a2.262 2.262 0 0 0 1.765.544l-.051 1.31a3.27 3.27 0 0 1-2.696-.863c-1.496-1.375-1.73-3.569.087-5.55ZM147.91 29.404l3.291 3.678-.996.895-2.22-2.482-1.385 1.241 1.884 2.109-1.005.9-1.888-2.11-1.601 1.438 2.297 2.57-1.005.898-3.374-3.768ZM152.506 44.962l-1.45-2.173-2.032.674-.907-1.358 8.133-2.32 1.05 1.576-5.265 6.623-.937-1.404Zm.85-.984.6-.687c.558-.674 1.208-1.37 1.8-2.05l-.023-.037a59.22 59.22 0 0 1-2.575.892l-.866.289ZM160.002 45.71l.756 1.46-2.726 4.052-1.176 1.514.025.051c.705-.463 1.595-1.062 2.406-1.482l2.85-1.477.703 1.352-7.148 3.705-.751-1.447 2.75-4.051 1.159-1.522-.025-.049c-.735.471-1.577 1.041-2.401 1.465l-2.866 1.491-.704-1.351ZM164.23 54.297l.79 2.06c.878 2.3.235 4.181-2.307 5.15-2.53.971-4.337.028-5.184-2.187l-.822-2.144Zm-5.556 4.389c.536 1.402 1.623 1.986 3.452 1.287 1.84-.703 2.195-1.842 1.66-3.246l-.18-.467-5.113 1.958ZM167.343 68.385l-.486-2.211 1.307-.285 1.322 6.013-1.31.287-.488-2.232-6.555 1.443-.348-1.572ZM169.892 74.504l.589 4.908-1.329.158-.396-3.306-1.847.222.334 2.809-1.339.16-.338-2.81-2.14.257.414 3.426-1.34.16-.604-5.023ZM166.616 81.98c2.654-.064 4.25 1.61 4.302 3.641a3.303 3.303 0 0 1-.979 2.385l-1.045-.826a2.052 2.052 0 0 0 .64-1.494c-.028-1.217-1.093-2.106-2.824-2.065-1.752.041-2.786.893-2.756 2.166a2.247 2.247 0 0 0 .833 1.647l-.98.87a3.257 3.257 0 0 1-1.247-2.538c-.05-2.034 1.37-3.721 4.056-3.786ZM170.739 90.828l-.135 1.606-3.155-.262-.254 3.035 3.157.264-.135 1.595-8.025-.672.13-1.595 3.472.29.257-3.038-3.474-.287.136-1.608ZM169.732 100.457l-.324 1.61-4.667 1.449-1.862.445-.012.053c.84.08 1.908.174 2.805.355l3.144.631-.3 1.496-7.893-1.59.322-1.601 4.684-1.43 1.855-.461.016-.053c-.87-.095-1.887-.18-2.793-.363l-3.168-.637.3-1.492ZM163.965 108.256c2.493.816 3.48 2.685 2.82 4.713-.664 2.029-2.578 2.947-5.064 2.135-2.482-.813-3.546-2.708-2.881-4.735.663-2.027 2.642-2.926 5.125-2.113Zm-1.733 5.285c1.646.539 2.864.139 3.239-.998.37-1.14-.375-2.186-2.018-2.725-1.637-.535-2.916-.154-3.287.985-.375 1.138.434 2.205 2.066 2.738ZM164.371 119.102l-.658 1.47-6.117-2.74-1.335 2.978-1.232-.55 1.995-4.45ZM157.958 123.531c2.272 1.309 2.858 3.344 1.794 5.19-1.068 1.847-3.13 2.355-5.394 1.05-2.26-1.304-2.913-3.378-1.847-5.226 1.066-1.846 3.187-2.32 5.447-1.014Zm-2.778 4.817c1.497.863 2.777.718 3.37-.317.6-1.039.087-2.21-1.411-3.076-1.49-.86-2.823-.752-3.422.29-.598 1.032-.025 2.243 1.463 3.103ZM153.065 131.586c2.131 1.584 2.355 3.89 1.079 5.611a3.403 3.403 0 0 1-2.314 1.387l-.31-1.3a2.115 2.115 0 0 0 1.482-.866c.797-1.072.514-2.447-.871-3.479-1.408-1.044-2.737-1.027-3.676.24a1.613 1.613 0 0 0-.36.995l1.276.945.85-1.142 1.058.783-1.704 2.299-2.92-2.166a3.795 3.795 0 0 1 .779-2.672c1.307-1.766 3.473-2.233 5.63-.635ZM145.717 139.197l5.399 1.655-1.154 1.263-1.987-.726a94.425 94.425 0 0 0-1.79-.688l-.027.031c.286.606.543 1.16.833 1.735l.904 1.914-1.13 1.236-2.134-5.23-2.18-1.989 1.088-1.187ZM45.358 159.111l4.732 2.614-.555 1.004-5.993-3.311 1.411-2.55 1.26.694Zm1.197-1.984c-1.261-.697-1.781-1.879-1.221-2.893.549-.996 1.834-1.193 3.093-.5 1.263.698 1.774 1.893 1.227 2.885-.558 1.01-1.838 1.205-3.1.508Zm4.636-2.277-5.18-2.862.544-.984 1.95 1.078.517-.937 1.27.703-.516.935 1.97 1.086Zm-4.109 1.322c.555.307 1.098.27 1.367-.219.261-.474.006-.955-.549-1.264-.562-.31-1.097-.27-1.36.21-.27.488-.022.962.542 1.273Zm6.598 1.062-.576 1.04-1.164-.645-1.58 2.861-1.262-.697 3.635-6.586 1.265.7-1.484 2.683ZM61.458 162.38l-.468 1.339 2.636.925-1.187 3.387-1.37-.48.812-2.319-5.367-1.882.375-1.067 2.74.957.469-1.34-3.605-1.261.378-1.08 6.038 2.113a11.361 11.361 0 0 0 .972-2.111l-5.183-1.815.382-1.096 6.52 2.288-.266.763a13.67 13.67 0 0 1-1.064 2.447l1.195.42-.379 1.08ZM71.865 166.951c.96.131 1.94.237 2.863.283l-.102 1.037a38.16 38.16 0 0 1-6.018-.628l.07-1.184c.55.094 1.154.197 1.78.295l.505-2.926 1.397.24Zm.985-1.103a20.317 20.317 0 0 0 .838-3.31l-3.7-.64.195-1.13 5.099.878-.138.809a21.904 21.904 0 0 1-.927 3.748Zm5.314.605-1.332-.23-.818 4.736-1.423-.246 1.71-9.91 1.422.246-.69 3.992 1.334.23ZM88.18 163.59l-5.914-.012v-1.137l2.227.006v-.94l1.455.005-.003.937 2.24.006Zm-2.963 4.011c-1.444-.003-2.467-.76-2.465-1.86.004-1.093 1.031-1.843 2.472-1.84 1.45.001 2.464.757 2.463 1.849-.003 1.101-1.019 1.853-2.47 1.851Zm-1.748.672 6.703.014-.006 3.352-1.441-.004.003-2.196-5.261-.007Zm1.75-1.763c.641 0 1.093-.25 1.093-.764 0-.502-.446-.754-1.093-.756-.653 0-1.09.248-1.093.754 0 .51.438.762 1.093.766Zm6.289-1.159h-1.333l-.003 2.52-1.44-.002.01-6.299 1.44.004-.004 2.586 1.333.002ZM100.308 161.402a7.343 7.343 0 0 1-3.317 7.989l-.934-.996c2.326-1.647 3.16-3.381 2.989-5.616l-3.305.563-.192-1.13Zm2.774-1.535 1.686 9.916-1.43.242-1.69-9.914ZM116.006 159.52a4.844 4.844 0 0 1-3.99-.465 4.903 4.903 0 0 1-2.841 2.863l-.8-.87c2.06-.952 2.756-2.27 2.433-3.189l-.06-.176 1.4-.49.062.178c.322.914 1.688 1.512 3.894.97Zm-2.23 2.425.217.608 2.575-.907.864 2.467-5.191 1.82.186.536 5.439-1.908.359 1.021-6.791 2.379-.874-2.494 5.201-1.822-.179-.518-5.215 1.83-.352-1.012 2.618-.916-.213-.607-3.595 1.26-.38-1.07 8.575-3.007.375 1.073ZM120.246 156.148c-.513-.935.048-2.078 1.342-2.783 1.282-.701 2.545-.558 3.056.381.514.94-.05 2.068-1.334 2.772-1.294.707-2.551.572-3.064-.37Zm10.178 1.957.549 1.006-6.546 3.577-1.43-2.625 1.224-.67-.644-1.18c-.756.46-1.487.873-2.15 1.236l-.712-.92a54.625 54.625 0 0 0 5.469-3.332l.579.852a22.42 22.42 0 0 1-1.972 1.4l.91 1.67-1.217.662.66 1.21Zm-8.98-2.61c.236.433.769.427 1.363.103.584-.319.875-.766.642-1.198-.239-.43-.775-.435-1.36-.117-.596.326-.879.781-.644 1.211Zm6.136.868-2.8-5.129 1.262-.69 3.657 6.688-1.265.694-.383-.701-1.66.904-.47-.863ZM138.455 148.324a1.476 1.476 0 1 1-1.476-1.478 1.472 1.472 0 0 1 1.476 1.478ZM37.635 148.324a1.478 1.478 0 1 1-1.477-1.478 1.475 1.475 0 0 1 1.477 1.478Z" style="fill:#fff"/><path d="M70.808 128.803h2.26v-6.047h-1.96v-1.574a7.208 7.208 0 0 0 2.63-.956h1.875v8.577h1.916v2.058h-6.721ZM80.812 128.273a2.408 2.408 0 0 0 1.629.727c1.087 0 1.947-.77 2.043-3.1a2.8 2.8 0 0 1-2.029 1.073c-1.787 0-3.117-1.057-3.117-3.346a3.413 3.413 0 0 1 3.505-3.604c2.015 0 3.972 1.53 3.972 5.391 0 3.86-2.028 5.647-4.202 5.647a4.324 4.324 0 0 1-3.13-1.274Zm3.63-4.09c-.214-1.755-.885-2.257-1.544-2.257-.67 0-1.244.472-1.244 1.7 0 1.145.574 1.56 1.288 1.56a1.736 1.736 0 0 0 1.5-1.003ZM92.577 122.342h-4.575v-2.115h7.292v1.54c-2.46 2.932-2.717 4.934-2.905 9.094h-2.557c.2-3.502.743-5.748 2.745-8.52ZM96.879 128.803h2.258v-6.047h-1.959v-1.574a7.21 7.21 0 0 0 2.632-.956h1.872v8.577h1.918v2.058h-6.721Z" style="fill:#06488b"/></svg>