<svg xmlns="http://www.w3.org/2000/svg" viewBox="160.99716186523438 161.80453491210938 872.1334228515625 256.10546875"><path fill="#165736" d="M873.59 333.02c0-49.622 37.763-83.64 83.017-83.64 38.699 0 71.154 23.719 76.464 59.609.31.936-.63 2.185-1.87 2.185h-34.335c-2.496 0-3.121-.624-3.433-1.561-4.681-16.54-19.661-26.527-37.139-26.527-24.655 0-41.508 20.598-41.508 49.934 0 29.961 17.477 51.183 41.508 51.183 17.165 0 31.834-9.363 37.139-26.84.312-.936.937-1.248 1.873-1.248h35.895c1.24 0 2.18.936 1.87 2.185-6.87 37.45-39.95 59.609-77.089 59.609-45.877 0-82.392-33.394-82.392-84.889M818.27 191.96c0-.937.624-1.873 1.56-1.873h36.827c1.248 0 1.872.936 1.872 1.873v33.705c0 .937-.624 1.873-1.872 1.873H819.83c-.936 0-1.56-.936-1.56-1.873zm.312 63.042c0-.936.624-1.873 1.56-1.873h36.203c1.248 0 1.872.937 1.872 1.873v157.92c0 .936-.624 1.56-1.872 1.56h-36.203c-.936 0-1.56-.624-1.56-1.56zM723.4 417.6c-45.878 0-83.953-31.521-83.953-85.2 0-51.183 39.324-83.329 82.392-83.329 43.693 0 81.144 29.649 81.144 87.074v6.242c0 1.248-1.248 2.496-2.809 2.496h-120.47c3.121 25.592 21.846 41.508 44.941 41.508 14.668 0 29.337-4.993 36.827-18.413q.468-.936 1.872-.936h35.579c1.248 0 2.184 1.248 1.872 2.496-10.923 33.706-44.629 48.062-77.398 48.062zm-2.185-137.32c-21.222 0-39.011 13.42-41.82 36.203h82.392c-1.873-21.846-18.101-36.203-40.572-36.203M542.82 417.91c-47.126 0-84.889-32.77-84.889-84.889 0-50.871 38.387-83.64 84.889-83.64 47.126 0 84.889 32.145 84.889 83.64s-38.075 84.889-84.889 84.889m0-33.706c25.904 0 43.693-20.286 43.693-51.183 0-29.336-17.789-49.934-43.693-49.934-26.528 0-43.693 20.286-43.693 49.934 0 30.273 17.477 51.183 43.693 51.183M373.55 371.41v-87.698h-25.279c-1.249 0-1.873-.936-1.873-1.872V255c0-.937.624-1.873 1.873-1.873h25.279v-37.451c0-.936.624-1.872 1.873-1.872h35.89c.936 0 1.873.936 1.873 1.872v37.451h35.266c1.248 0 1.872.936 1.872 1.873v26.84c0 .936-.624 1.872-1.872 1.872h-35.266v79.895c0 16.853 5.305 19.662 18.101 19.662h17.165c1.248 0 1.872.936 1.872 1.873v27.464c0 .936-.624 1.872-1.56 1.872-10.611.312-17.477.312-30.273.312-27.464 0-44.941-8.114-44.941-43.38M299.45 201.01l-105.8 105.8c-.936.937-2.497.625-3.121-.936l-6.242-19.037c0-.625 0-1.249.624-1.873l30.897-30.897h-52.743c-1.56 0-2.497-1.56-1.872-2.809l9.05-18.101q.468-.936 1.873-.936h43.692l-37.45-37.451c-.937-.936-.625-2.809.936-3.121l19.037-6.242c.625-.312 1.561 0 1.873.312l31.209 31.209v-53.055c0-1.561 1.248-2.497 2.809-1.873l17.789 9.051c.624.312.936 1.248.936 1.872v43.693l37.451-37.139c1.249-1.248 2.809-.624 3.433.625l5.93 19.037c.312.624.312 1.248-.312 1.873zm21.846 31.209c1.561 0 2.497 1.248 1.873 2.809l-9.051 17.789c-.312.624-1.248.936-1.872.936h-43.693l37.139 37.451c1.248 1.248.936 2.809-.625 3.433l-19.037 6.242c-.624 0-1.561 0-1.873-.624l-31.209-30.897v52.743c0 1.56-1.56 2.497-2.809 1.872l-17.789-9.05q-.936-.468-.936-1.873v-27.464c0-.624 0-1.248.312-1.56l51.495-51.183c.312-.624.936-.624 1.248-.624z"/></svg>